<svg xmlns="http://www.w3.org/2000/svg" width="150.03" height="752.026"><g data-name="グループ 32" fill="#707070"><path data-name="パス 4128" d="M38.182 178.126a16.744 16.744 0 00-6.65-2.95 17.724 17.724 0 00-2.35-.35 26.581 26.581 0 00-6.9.15.215.215 0 01-.2-.2v-4.55a.183.183 0 01.2-.2h3.45c5.4 0 7.05-3.45 7.1-3.6.6-1.25-1.25-2-1.85-.85-.05.1-1.25 2.4-5.25 2.4h-3.4c-.15 0-.2-.1-.2-.25v-4.15a1.4 1.4 0 00-2.8 0v4.15a.236.236 0 01-.25.25h-8.4a1.025 1.025 0 100 2.05h8.4a.229.229 0 01.25.2v5.15c0 .1-.1.25-.2.25-4.45 1.4-8.95 3.3-11.8 7.3-3.05 4.25-2.4 7.8.3 9.55a7.321 7.321 0 005.15.65 18.186 18.186 0 006.6-2.95c.1-.05.25 0 .25.1a7.278 7.278 0 001.6 3.65c.9 1.35 2.85-.1 2.05-1.5v-.05c-.8-.8-.95-2.3-1.1-3.7a2.242 2.242 0 00-.05-.55.454.454 0 01.15-.35 24.61 24.61 0 005.95-10.8c.15-.25 0-.5.7-.5.75.2 1.45.3 2.15.5a13.113 13.113 0 015.3 3 8.127 8.127 0 012.2 6.5 9.7 9.7 0 01-.95 3.1 15.336 15.336 0 01-4.2 4.65 25.706 25.706 0 01-6.9 3.25c-1.25.4-2.55.7-4.05 1.05l-.05.05c-.95.2-.75 1.85.3 1.6a40.588 40.588 0 004.35-.8 31.888 31.888 0 007.75-3 18.029 18.029 0 005.7-5.15 9.768 9.768 0 001.45-4.35 10.39 10.39 0 00-3.8-8.75zm-25.8 12.3c-1.15.2-2.5.3-3.2-.3-1.8-1.5-1.6-3.75-.1-6 2.2-3.35 6.15-5.5 10.05-6.85.1-.05.2.05.2.15v9.5c0 .35-.35.5-.6.75a15.856 15.856 0 01-6.35 2.75zm14.1-14a12.788 12.788 0 00-.45 1.3 29.828 29.828 0 01-3.7 6.7.14.14 0 01-.25-.1v-7.55c0-.1.05-.25.2-.25a22.042 22.042 0 014.05-.25.16.16 0 01.15.15zm15.1 52.25c-3.3-1.65-6.65-3.55-9.1-6.55-.75-.9-2.05.2-1.45 1.15a32.727 32.727 0 005.6 5.75.412.412 0 01-.25.75h-1.75c-4.6 0-7.4 1.35-7.4 6.55v8.55a.215.215 0 01-.2.2 19.089 19.089 0 00-3.85-.3 10.8 10.8 0 00-6.25 1.55 4.1 4.1 0 00-1.8 3.6 4.288 4.288 0 002.5 3.3 12.8 12.8 0 003.5 1.05 13.131 13.131 0 003.7-.05 7.349 7.349 0 003.6-1.65 4.85 4.85 0 001.25-1.85 5.646 5.646 0 00.45-2.05c.05-.15 0-.3.05-.45 0-.1.1-.15.15-.1a23.185 23.185 0 016.35 3.9 7.308 7.308 0 00.8.6c1.45 1.1 3.3-1.6 1.6-2.65-.25-.15-.65-.45-.65-.45a38.261 38.261 0 00-8.05-3.65.332.332 0 01-.2-.25v-9.3c0-3.05.9-4.85 4.5-4.85h6.3a1.543 1.543 0 00.45-.05 1.583 1.583 0 00.95-.85 1.49 1.49 0 00-.8-1.9zm-23.05-2.5c5.4 0 7.05-3.4 7.15-3.55.95-1.25-1.2-2.25-1.9-.9-.05.1-1.2 2.4-5.25 2.4h-2.1a.215.215 0 01-.2-.2c.2-2.65.3-4.85.3-6.35.1-2.1-3.3-2.1-3.1.05 0 1.45 0 3.45-.15 6.3a.229.229 0 01-.25.2h-7.15a1.026 1.026 0 000 2.05h7c.1 0 .2.1.15.2a29.718 29.718 0 01-8.4 17c-1.4 1.4.9 3.5 2.25 2.05 5.1-5.95 8.15-11.45 9.1-19.05a.229.229 0 01.25-.2zm8.5 23.45c-.3 1.2-1.65 1.7-2.75 1.95a9.268 9.268 0 01-5.6-.45c-.85-.35-1.35-.9-1.4-1.4a1.9 1.9 0 01.85-1.75 9.541 9.541 0 015.1-1.25 18.335 18.335 0 013.75.4c.1 0 .2.15.2.25a9.124 9.124 0 01-.15 2.25zm-9.6 31.15c-.15 0-.2-.1-.2-.25.05-1.5.15-3 .15-4.5v-1.6c0-2.15-3.35-2.1-3.35.05 0 .55.05 1.55.05 1.55 0 1.5 0 3-.05 4.5a.236.236 0 01-.25.25h-7.35a.9.9 0 100 1.8h7.3a.229.229 0 01.2.25 45.623 45.623 0 01-1.45 9.25 43.206 43.206 0 01-7.5 14.7l-.05.05c-1.25 1.6 1.35 3.55 2.55 1.85a51.332 51.332 0 007.85-15.9 48.866 48.866 0 001.75-9.95.229.229 0 01.2-.25h6.75a.9.9 0 000-1.8zm22.7 24.5a.049.049 0 01-.05-.05h-.35c-2.6.05-8.35.45-10.7-1.5-2.55-2.1-1.8-5.8-.1-8.1 2.5-3.4 5.85-5.8 9.1-8.15.9-.65 2.65-1.75 1.25-3.05-2.85-2.8-7.2-3.45-11-3.55a.88.88 0 00-.15 1.75 15.505 15.505 0 018.2 3.1.8.8 0 010 1.25c-.7.5-1.95 1.4-2.85 2.1-3.55 2.75-7.5 6-8.15 10.85a6.642 6.642 0 003.65 7.15c2.45 1.2 5.5 1.35 8.15 1.35.95 0 2.45.2 3.35-.25a1.575 1.575 0 00-.35-2.9zm1.55 40.95a16.877 16.877 0 00-4.2-9.9 16.021 16.021 0 00-10.1-4.9 22.747 22.747 0 00-11.35 1.4 19.472 19.472 0 00-10.95 10.5c-1.75 4.1-2.15 10.6 2.15 13.35 4.8 3.1 9.9-1.05 12.5-5.05a28.664 28.664 0 004.25-13.95 34.563 34.563 0 00.05-3.85v-.6a.215.215 0 01.2-.2 13.731 13.731 0 012.85.25 13.783 13.783 0 018.4 4.75 14.51 14.51 0 012.95 8.35 15.142 15.142 0 01-1.95 7.65 14.787 14.787 0 01-4.85 4.8 24.948 24.948 0 01-9.9 3.3c-1.05.1-.85 1.75.2 1.65 4.85-.5 8-1.35 10.9-2.9a17.569 17.569 0 006.15-5.3 14.247 14.247 0 002.7-9.25zm-19.75-12.4c-.05.85-.05 2.05-.2 3.65a27.519 27.519 0 01-3.6 11.3c-1.6 2.6-4.35 6.35-7.9 5.75-3.6-.7-3.65-5.3-3.1-8.15 1.15-5.4 5.2-9.5 9.7-11.75a18.449 18.449 0 014.9-1.45.215.215 0 01.2.2zm6.35 48.95a14.5 14.5 0 001.05-2.35c1.45-.25 2.15-.6 2.15-.95 0-.55-1.2-1.1-3.6-1.7-.55-.15-.9.05-1 .55a29.53 29.53 0 01-6.2 11.1c-.35.4-.45.7-.2.9a.725.725 0 001.05.05 23.487 23.487 0 006-6.35h1.9a8.574 8.574 0 012.85 4.9c.15 1.2.65 1.8 1.45 1.8a1.607 1.607 0 001.85-1.8c0-1.85-1.35-3.45-4.05-4.9h12.05a.92.92 0 00.8-.3.784.784 0 00-.1-1.1 30.078 30.078 0 00-2.1-2.3.682.682 0 00-1.1.1l-1.8 2.35zm-18.6 0q.45-.9 1.05-2.4c1.4-.25 2.1-.6 2.1-1 0-.65-1.25-1.2-3.7-1.75-.55-.1-.9.1-1 .6a33.294 33.294 0 01-7.7 13.6c-.35.35-.45.65-.25.85a.746.746 0 001.1.1 29.376 29.376 0 007.7-8.75h.9a9.056 9.056 0 012.75 5.05c.2 1.1.75 1.7 1.45 1.7a1.613 1.613 0 001.75-1.85c0-1.75-1.35-3.4-4-4.9h9.75a.975.975 0 00.85-.35.784.784 0 000-1.1 25.154 25.154 0 00-1.75-2.15.653.653 0 00-1.1.05l-1.8 2.3zm-1.45 23.45c.45-1.45 1-3.45 1.6-5.95h11.75v5.95zm16.25-7.2v-5.95h12.4v5.95zm12.4 2.65c0 .55.25.8.75.8h1.3a.694.694 0 00.8-.8v-7.75l1.3-.8a.6.6 0 00.3-.45c0-.5-.8-1.35-2.35-2.55a.8.8 0 00-1.15.1l-1.35 1.6H5.932c-.6 0-.9.25-.75.65a.875.875 0 00.9.6h15.5v5.95h-10.8c-.7-.4-1.6-.85-2.55-1.35-.55-.25-.95-.05-1 .5a71.835 71.835 0 01-3.25 11.4c-.15.5 0 .85.5.95l1.4.4a.792.792 0 001-.55c.3-.75.6-1.75.95-2.9h12.15a51.656 51.656 0 01-19 12.7c-.55.15-.75.5-.5.85a.95.95 0 001.05.35 50.1 50.1 0 0020.05-11.4v12.15a.663.663 0 00.75.75h1.4a.663.663 0 00.75-.75v-14.65h15.2a23.339 23.339 0 01-.8 5.85 3.148 3.148 0 01-3.25 2.2 62.54 62.54 0 01-6.95-.45c-.55-.05-.85.1-.85.5a.763.763 0 00.75.85 46.6 46.6 0 015 1.05 2.588 2.588 0 011.7 1.4.875.875 0 00.9.65 6.033 6.033 0 003.85-1.6c1.4-1.4 2.25-4.6 2.5-9.6l1.15-.65c.3-.2.5-.4.5-.6 0-.4-.8-1.3-2.4-2.6a.7.7 0 00-1.15.05l-1.4 1.7h-14.75v-5.95h12.4zm-34.3 52.4c-.6 0-.85.3-.7.7a.8.8 0 00.9.65h40.05a.845.845 0 00.85-.4.9.9 0 00-.05-1.1 42.425 42.425 0 00-3-3 .684.684 0 00-1.1.1l-2.55 3.05zm39.1 57.15a16.877 16.877 0 00-4.2-9.9 16.021 16.021 0 00-10.1-4.9 22.747 22.747 0 00-11.35 1.4 19.473 19.473 0 00-10.95 10.5c-1.75 4.1-2.15 10.6 2.15 13.35 4.8 3.1 9.9-1.05 12.5-5.05a28.664 28.664 0 004.25-13.95 34.564 34.564 0 00.05-3.85v-.6a.215.215 0 01.2-.2 13.73 13.73 0 012.85.25 13.783 13.783 0 018.4 4.75 14.51 14.51 0 012.95 8.35 15.142 15.142 0 01-1.95 7.65 14.786 14.786 0 01-4.85 4.8 24.948 24.948 0 01-9.9 3.3c-1.05.1-.85 1.75.2 1.65 4.85-.5 8-1.35 10.9-2.9a17.569 17.569 0 006.15-5.3 14.247 14.247 0 002.7-9.25zm-19.75-12.4c-.05.85-.05 2.05-.2 3.65a27.519 27.519 0 01-3.6 11.3c-1.6 2.6-4.35 6.35-7.9 5.75-3.6-.7-3.65-5.3-3.1-8.15 1.15-5.4 5.2-9.5 9.7-11.75a18.449 18.449 0 014.9-1.45.215.215 0 01.2.2zm-13.05 88.25a.736.736 0 00.8.8h1.25a.7.7 0 00.75-.8v-24.75a20.469 20.469 0 014.65 7.05c.4 1.15.95 1.75 1.65 1.75 1.1 0 1.7-.6 1.7-1.8 0-2.65-2.7-5.5-8-8.55v-5.45h7.9a.885.885 0 00.85-.4.9.9 0 00-.1-1.05 23.212 23.212 0 00-2.1-2.5.617.617 0 00-1.1.05l-1.8 2.65h-3.65v-8.45c1.4-.55 2.05-1 2.05-1.4 0-.6-1.3-.95-4-1.1a.7.7 0 00-.85.75v10.2h-7.55c-.6 0-.9.25-.75.65a.915.915 0 00.9.6h7.15l-.15.6a68.128 68.128 0 01-8.3 20.55c-.25.45-.25.75.05 1 .4.35.75.3 1.1-.15a53.906 53.906 0 007.55-14.05zm16.65-4.2v-11.2h14.1v11.2zm0-24.05v-10.15h14.1v10.15zm14.1 11.6h-14.1v-10.3h14.1zm-13.65-23a26.688 26.688 0 00-2.5-1.15c-.55-.25-.9 0-.9.6v40.05a.714.714 0 00.8.8h1.4a.7.7 0 00.75-.8v-2.8h14.1v2.8a.714.714 0 00.8.8h1.3a.714.714 0 00.8-.8v-37.25l1.35-1a.6.6 0 00.3-.45c0-.4-.75-1.3-2.4-2.7a.68.68 0 00-1.1.1l-1.45 1.8zm-7.35 62c.45 0 .7-.1.8-.35a.832.832 0 00-.1-1.05 29.48 29.48 0 00-2.15-2.3.677.677 0 00-1.1.05l-2 2.4H1.132c-.55 0-.85.25-.75.6a.861.861 0 00.9.65zm-2.4 12.5a1 1 0 00.85-.4.784.784 0 000-1.1 23.674 23.674 0 00-1.9-2.05c-.4-.4-.8-.4-1.1.05l-1.85 2.25h-8.7c-.55 0-.85.25-.7.6a.828.828 0 00.9.65zm-.25-18.8a.826.826 0 00.8-.35.77.77 0 00-.1-1.05 16.234 16.234 0 00-2.05-2.2.659.659 0 00-1.1.1l-1.85 2.25h-7.35c-.55 0-.85.2-.75.6a.857.857 0 00.85.65zm.35 12.55a.92.92 0 00.8-.3.836.836 0 00-.05-1.1 25.275 25.275 0 00-1.95-2.15c-.4-.4-.8-.4-1.1.05l-1.85 2.25h-8.65c-.55 0-.85.25-.7.6a.828.828 0 00.9.65zm3.9 18c.9 0 1.8-.65 2.7-2 1.2-1.85 1.9-4.5 2.15-7.95a.734.734 0 00-.45-.85c-.5-.1-.8.1-.9.65-.75 3.15-2.05 5.4-3.85 6.7-.9.7-1.35 1.25-1.35 1.7a1.525 1.525 0 001.7 1.75zm.85-20.5c.85 0 1.65-.65 2.35-1.85a12.572 12.572 0 001.4-6.25 10.626 10.626 0 00-.1-1.65c-.05-.5-.2-.7-.4-.75a.7.7 0 00-.9.7c-.35 2.9-1.3 5.1-2.9 6.5-.75.65-1.1 1.2-1.1 1.7a1.443 1.443 0 001.65 1.6zm-15.4 15.15h7.35v10.1h-7.35zm7.35 11.35v1.65a.7.7 0 00.75.8h1.2a.714.714 0 00.8-.8v-12.05l1.1-.8a.757.757 0 00.35-.55c0-.45-.75-1.25-2.25-2.5a.653.653 0 00-1.1.05l-1.25 1.6h-6.4c-.75-.4-1.55-.85-2.4-1.25-.6-.25-.95 0-.95.6v15.65a.714.714 0 00.8.8h1.25a.7.7 0 00.75-.8v-2.4zm21.05-29.95a11.776 11.776 0 01-2.2-4.9v-4.25c1.2-.45 1.8-.9 1.8-1.3q0-.9-3.75-1.2a.7.7 0 00-.85.75v6.65c0 7-3.45 12.25-10.3 15.8-.45.3-.65.55-.45.85a.824.824 0 001.05.35c7.5-2.75 11.6-7.55 12.35-14.5 1.35 4.6 4.9 8.65 10.6 12.15a.761.761 0 001.1-.25 8.776 8.776 0 011.2-1.5c.4-.45.35-.85-.2-1.05a27.793 27.793 0 01-9.65-6.7 44.06 44.06 0 006.4-6.15 4.042 4.042 0 00.8.05c.95 0 1.4-.15 1.4-.55 0-.5-.95-1.4-2.9-2.75a.649.649 0 00-1.1.25 57.219 57.219 0 01-5.3 8.25zm-.55 21.2a15.333 15.333 0 01-1.75-7.45v-3.9c1.25-.45 1.85-.85 1.85-1.25 0-.6-1.3-.95-3.8-1.15a.7.7 0 00-.85.75v6.65a19.274 19.274 0 01-1.85 8.7c-1.75 3.45-4.9 6.2-9.45 8.3q-.75.375-.45.9a.824.824 0 001.05.35c7.55-2.65 11.9-7.3 13.15-13.95a17.165 17.165 0 003.45 7.45 21.418 21.418 0 007.95 5.55.769.769 0 001.1-.35 17 17 0 011.15-1.5c.45-.45.35-.8-.25-1-4.95-1.75-8.45-4.05-10.55-7a47.346 47.346 0 007.4-6.6c1.35 0 2-.2 2-.6 0-.55-.95-1.4-2.8-2.55a.732.732 0 00-1.1.3 47.241 47.241 0 01-6.25 8.35zm-24.65 66.15a.736.736 0 00.8.8h1.25a.7.7 0 00.75-.8v-24.75a20.47 20.47 0 014.65 7.05c.4 1.15.95 1.75 1.65 1.75 1.1 0 1.7-.6 1.7-1.8 0-2.65-2.7-5.5-8-8.55v-5.45h7.9a.885.885 0 00.85-.4.9.9 0 00-.1-1.05 23.212 23.212 0 00-2.1-2.5.617.617 0 00-1.1.05l-1.8 2.65h-3.65v-8.45c1.4-.55 2.05-1 2.05-1.4 0-.6-1.3-.95-4-1.1a.7.7 0 00-.85.75v10.2h-7.55c-.6 0-.9.25-.75.65a.915.915 0 00.9.6h7.15l-.15.6a68.128 68.128 0 01-8.3 20.55c-.25.45-.25.75.05 1 .4.35.75.3 1.1-.15a53.906 53.906 0 007.55-14.05zm16.65-4.2v-11.2h14.1v11.2zm0-24.05v-10.15h14.1v10.15zm14.1 11.6h-14.1v-10.3h14.1zm-13.65-23a26.688 26.688 0 00-2.5-1.15c-.55-.25-.9 0-.9.6v40.05a.714.714 0 00.8.8h1.4a.7.7 0 00.75-.8v-2.8h14.1v2.8a.714.714 0 00.8.8h1.3a.714.714 0 00.8-.8v-37.25l1.35-1a.6.6 0 00.3-.45c0-.4-.75-1.3-2.4-2.7a.68.68 0 00-1.1.1l-1.45 1.8zm15.1 67.95a.872.872 0 00.9-.45.912.912 0 00-.15-1.1c-.85-1-1.7-1.9-2.45-2.7a.68.68 0 00-1.1.1l-2.2 2.9h-11.55v-9.35c3.7-.5 7.25-1.2 10.65-2a17.256 17.256 0 002 .25c.75 0 1.1-.15 1.1-.5 0-.6-1.05-1.55-3.15-2.8a1.14 1.14 0 00-1.05-.1q-11.025 3.975-28.95 6c-.55.05-.8.35-.65.7a.86.86 0 00.95.6c6.25-.5 11.6-1.05 16.05-1.7v8.9H4.332c-.55 0-.85.25-.7.65a.856.856 0 00.9.6h16.95v8.7h-20c-.55 0-.85.25-.7.65a.916.916 0 00.9.6h19.8v10.65c0 1.1-.6 1.6-1.85 1.6-2.1 0-4.65-.15-7.6-.45-.55-.05-.85.1-.85.55a.789.789 0 00.75.85 42.463 42.463 0 014.95 1.05 2.8 2.8 0 011.9 1.75c.15.45.35.7.85.7 3.25-.1 4.9-1.35 4.9-3.65v-13.05h19.65a1.009 1.009 0 00.9-.45.836.836 0 00-.05-1.1 25.016 25.016 0 00-2.75-2.95.682.682 0 00-1.1.1l-2.3 3.15h-14.35v-8.7z"/><path data-name="パス 4127" d="M115.232 51.876a.933.933 0 001.2.36 40.41 40.41 0 0012.84-6.6 4.553 4.553 0 00.96.06c1.14 0 1.68-.18 1.68-.72 0-.66-1.14-1.56-3.42-2.76a1.1 1.1 0 00-1.38.24 34.39 34.39 0 01-11.4 8.34c-.6.3-.78.72-.48 1.08zm-19.38-47.88c-.72 0-1.08.3-.84.78a1.049 1.049 0 001.08.72h22.32c.54 0 .9-.18 1.02-.54a1.18 1.18 0 00-.12-1.32c-.9-.96-1.68-1.86-2.46-2.64a.815.815 0 00-1.32.12l-2.16 2.88zm39.78 38.52c-.24.36-.06.78.54 1.02a28.218 28.218 0 018.94 6.48c.9 1.02 1.68 1.56 2.22 1.56 1.26 0 1.92-.72 1.92-2.16 0-.9-.78-1.92-2.4-3.06a32.636 32.636 0 00-10.02-4.26 1.025 1.025 0 00-1.2.42zm-37.2-10.26c-.36.3-.3.72.06 1.2a13.62 13.62 0 012.94 6.84c.12 1.68.72 2.46 1.68 2.46 1.44 0 2.16-.78 2.16-2.4 0-2.76-1.92-5.46-5.64-8.1a.9.9 0 00-1.2 0zm10.08 10.74c-4.2.96-8.4 1.8-12.78 2.46a.8.8 0 00-.72 1.14c.9 2.94 1.68 4.38 2.4 4.38.48 0 .84-.72 1.14-2.28a207.86 207.86 0 0020.82-7.02q.72-.36.72-.9c-.12-.72-.54-.96-1.14-.72-3.12 1.02-5.88 1.86-8.22 2.4a67.927 67.927 0 004.08-7.86c1.5-.06 2.28-.36 2.28-.9 0-.78-1.38-1.68-4.02-2.64-.66-.24-1.14 0-1.26.66a76.908 76.908 0 01-3.3 11.28zm4.86-27.9v10.56h-12.24v-10.56zm-11.82-1.5a27.944 27.944 0 00-2.7-1.32c-.66-.3-1.08 0-1.08.72v16.5a.8.8 0 00.9.9h1.5a.84.84 0 00.96-.9v-2.34h12.24v1.8a.856.856 0 00.96.96h1.5a.856.856 0 00.96-.96v-12.9l1.26-.9a.948.948 0 00.48-.72c0-.42-.9-1.38-2.64-2.82a.842.842 0 00-1.38.06l-1.5 1.92zm24.84 8.28h15.42v7.08h-15.42zm0 8.58h15.42v7.62h-15.42zm15.42-16.32v6.24h-15.42v-6.24zm-14.88-1.5c-.96-.54-1.92-.96-2.82-1.38-.66-.3-1.08.06-1.08.78v28.86c0 .66.3.96.9.96h1.5a.856.856 0 00.96-.96v-1.32h15.42v1.2a.8.8 0 00.9.9h1.5a.84.84 0 00.96-.9v-25.56l1.5-1.02a.846.846 0 00.48-.72c0-.48-.96-1.5-2.94-3.06a.815.815 0 00-1.32.12l-1.62 2.1h-8.76a66.461 66.461 0 004.14-7.68h11.16c.54 0 .84-.12.96-.42a.93.93 0 00-.12-1.26 26.827 26.827 0 00-2.76-3 .793.793 0 00-1.32.18l-2.4 3h-19.92c-.72 0-1.08.3-.84.78a1.1 1.1 0 001.08.72h9.42a60.788 60.788 0 01-1.32 7.68zm-31.26 53.38c-.36.3-.36.72-.06 1.2a23.816 23.816 0 012.82 8.7c.12 1.26.72 1.92 1.68 1.92 1.56 0 2.34-.84 2.34-2.58 0-2.88-1.86-5.94-5.58-9.12-.48-.42-.9-.42-1.2-.12zm12.66-4.02a20.22 20.22 0 00-2.94-1.38c-.66-.3-1.08 0-1.08.72v17.7c0 .66-.06 1.5-.12 2.4a55.18 55.18 0 01-9.78 5.58.885.885 0 00-.42 1.32c1.14 2.52 1.98 3.84 2.64 3.84.48 0 .84-.84 1.02-2.52a42.831 42.831 0 005.88-5.28l.54-.54c-.78 9.18-3.48 16.56-8.28 22.08-.42.48-.42.9-.12 1.2.48.36.9.42 1.32 0 7.2-6.06 10.74-14.94 10.74-26.76v-16.86h39.6a1.049 1.049 0 00.96-.42 1.1 1.1 0 00-.18-1.32 34 34 0 00-2.76-2.94.763.763 0 00-1.32.12l-2.46 3.06h-15.18v-5.1c1.68-.54 2.46-1.08 2.46-1.56 0-.72-1.62-1.2-4.8-1.44-.72-.06-1.02.3-1.02.9v7.2zm17.7 31.26h-10.38v-6.36h10.38zm3.36-7.86v-6h11.4v6zm0 7.86v-6.36h11.4v6.36zm-3.36-13.86v6h-10.38v-6zm4.62-1.5a1.791 1.791 0 00.6-1.32c0-.72-.48-1.38-1.44-2.04a88.622 88.622 0 009.3-4.2l1.86-.36c.6-.12.9-.36.9-.66 0-.48-1.14-1.56-3.3-3.3a.96.96 0 00-1.38.06l-1.56 1.56h-21.48c-.72 0-1.08.36-.84.84a1.128 1.128 0 001.14.66h20.76a37.367 37.367 0 01-7.02 4.44 33.127 33.127 0 00-7.62-2.16c-.54-.12-.9-.06-.96.12a.806.806 0 00.42 1.26 22.159 22.159 0 017.68 4.5l.6.6h-12.12c-1.14-.54-2.1-.9-2.82-1.2-.66-.24-1.08.12-1.08.78v29.16a.883.883 0 00.96.96h1.5a.84.84 0 00.9-.96v-11.88h10.38v10.38a.84.84 0 00.96.9h1.5a.8.8 0 00.9-.9v-10.38h11.4v5.82q0 1.62-1.8 1.62c-1.62 0-3.48-.12-5.58-.3-.66-.06-1.02.12-1.02.6a.9.9 0 00.9.96 30.684 30.684 0 013.6.9 2.406 2.406 0 011.68 1.62c.18.54.48.9 1.02.84 3.06-.18 4.56-1.74 4.56-4.68v-21.66l1.5-.96a.841.841 0 00.48-.66c0-.42-.9-1.38-2.88-2.88a.891.891 0 00-1.32.12l-1.56 1.8zm-8.82 53.26a4.131 4.131 0 00-2.46.78 4.084 4.084 0 00-1.86 3.54 4.327 4.327 0 001.56 3.3 4.126 4.126 0 002.76 1.02 4.214 4.214 0 003.72-2.04 4.474 4.474 0 00.6-2.28 4.077 4.077 0 00-1.2-2.94 4.283 4.283 0 00-3.12-1.38zm-3.12 51.7a35.219 35.219 0 01-4.98 13.2.268.268 0 01-.3 0 28.981 28.981 0 01-4.2-7.2.371.371 0 01.12-.42 33.006 33.006 0 019.06-5.82c.18 0 .3.06.3.24zm-7.26 15.9a14.041 14.041 0 01-5.46 3.84c-3.3 1.02-4.92-.78-3.48-4.44a22.26 22.26 0 014.26-7.02c.06-.12.24-.06.36.06a35.261 35.261 0 004.32 7.2.382.382 0 010 .36zm33.84-8.94a14.711 14.711 0 00-7.8-9.6 22.03 22.03 0 00-14.82-1.08c-.12 0-.24-.06-.18-.18a2.921 2.921 0 01.06-.72c.18-1.98.3-3.9.3-6.06 0-2.46-4.08-2.28-3.84.24.06.48.12 1.44.12 1.44a25.669 25.669 0 01-.12 6.06.405.405 0 01-.24.36 35.2 35.2 0 00-10.32 5.58c-.12.12-.24.06-.3-.06-.48-1.62-.84-3.3-1.26-5.04v-.06a1.508 1.508 0 00-2.94.66 46.187 46.187 0 001.8 6.42.506.506 0 01-.12.42c-3.18 3.24-6.42 7.32-7.08 12.12-.3 4.98 4.2 6.3 8.34 4.68a14.421 14.421 0 006.12-4.38.492.492 0 01.42 0 24.982 24.982 0 004.5 3.84 1.507 1.507 0 001.74-2.46 28.388 28.388 0 01-4.26-3.66c-.12-.06-.12-.24 0-.36a36.717 36.717 0 006.72-16.32.275.275 0 01.24-.3c4.38-1.14 9.42-1.02 13.62 1.44a12.251 12.251 0 015.58 7.98 17.456 17.456 0 01-.66 8.82c-1.98 6.24-7.56 10.32-13.98 12.9l-.06.06c-1.14.42-.42 2.34.78 1.92 6.78-2.46 13.56-6.48 16.8-13.62a16.938 16.938 0 00.84-11.04zm-11.52 54.4c6.48 0 8.46-4.14 8.52-4.26a1.234 1.234 0 00-2.22-1.08c-.06.12-1.5 2.88-6.3 2.88h-7.02a.274.274 0 01-.3-.24v-17.34a1.8 1.8 0 10-3.6.06v17.34a.258.258 0 01-.24.24h-9.66a.306.306 0 01-.06-.6c2.94-1.26 6.6-2.76 7.14-7.02 1.2-7.5-10.38-7.08-14.58-6.66-1.74.18-1.56 3.12.18 3 1.98-.12 12.48-1.2 11.94 3.42-.42 4.44-8.76 6.96-11.88 7.74a1.265 1.265 0 00.12 2.52h16.8a.258.258 0 01.24.24v12.96c0 .12-.12.24-.24.18-4.86-.72-9.9-1.38-14.1.36-2.76 1.2-5.04 3.6-3.96 6.84.9 2.58 3.72 3.72 6.18 4.32a17.315 17.315 0 004.98.42c3.48-.12 8.04-.84 9.84-4.5a8.709 8.709 0 00.84-3.54c0-.12.18-.18.3-.12 5.34 1.86 7.32 3.48 10.86 5.46 2.28 1.14 4.14-2.34 1.86-3.48a45.186 45.186 0 00-12.72-4.8.4.4 0 01-.24-.3v-13.8a.274.274 0 01.3-.24zm-11.4 19.32c-1.08 2.28-4.38 3.06-6.78 3.24-2.82.24-6.06-.18-7.98-1.74-1.62-1.38-.84-3.6.78-4.62a9.9 9.9 0 015.1-1.26 37.84 37.84 0 019.06 1.14c.18 0 .24.12.24.3a8.464 8.464 0 01-.42 2.94zm23.52 46.3c0-6.3-3.72-16.98-11.46-18.3-6.12-1.02-11.64 3.06-14.58 8.34a71.939 71.939 0 00-5.34 12.3c-.3.9-.96 2.88-2.04 3.06-1.5.18-2.94-1.74-3.66-2.76-3.24-4.56-3.42-10.5-3.42-15.9 0-2.28.54-5.16-.84-7.2-1.2-1.68-3.18-1.92-5.1-1.92a1.14 1.14 0 000 2.28c1.98-.18 2.04 1.86 2.04 3.24.06 5.22-.18 10.5 1.38 15.54 1.08 3.42 5.4 11.94 10.2 10.2 1.74-.6 2.58-2.52 3.12-4.08.84-2.22 1.5-4.5 2.28-6.78 1.8-5.22 4.14-10.68 9.06-12.96a8.684 8.684 0 0111.22 3.24c2.34 3.48 2.34 7.98 2.64 12.06.3 2.88 4.74 2.64 4.5-.36zm-24.06 41.32a4.131 4.131 0 00-2.46.78 4.084 4.084 0 00-1.86 3.54 4.327 4.327 0 001.56 3.3 4.126 4.126 0 002.76 1.02 4.214 4.214 0 003.72-2.04 4.474 4.474 0 00.6-2.28 4.077 4.077 0 00-1.2-2.94 4.283 4.283 0 00-3.12-1.38zm-6.18 48.22a1.1 1.1 0 00.96-.36 1.08 1.08 0 000-1.32c-.72-1.02-1.38-1.92-2.1-2.82a.741.741 0 00-1.32.06l-1.98 2.94h-3.12v-10.98c1.56-.66 2.34-1.2 2.34-1.74 0-.72-1.62-1.2-4.8-1.32a.814.814 0 00-.96.9v13.14h-4.56c.36-1.98.6-4.56.84-7.74 1.32-.48 1.98-.9 1.98-1.38 0-.72-1.44-1.2-4.38-1.44a.836.836 0 00-1.02.9 91.559 91.559 0 01-2.76 22.68c-.18.54-.06.9.3 1.08a.886.886 0 001.2-.54 54.827 54.827 0 003.6-12.06h4.8v15.12c-3 .72-6.12 1.32-9.3 1.86a.774.774 0 00-.72 1.14q1.26 4.14 2.34 4.14c.48 0 .84-.72 1.02-2.16q3.15-.9 6.48-1.98v19.2c0 .6.3.9.96.9h1.5c.66 0 .96-.3.96-.9v-20.4l.36-.18q3.15-1.17 8.46-3.24c.54-.24.78-.54.72-.84a.808.808 0 00-1.14-.72c-2.34.72-5.04 1.56-8.22 2.34v-14.28zm26.94-1.74c-.06 16.08-.9 26.76-2.52 31.98-.54 1.74-1.92 2.64-4.14 2.64a63.215 63.215 0 01-7.56-.6c-.66-.12-1.02.12-1.02.6a.979.979 0 00.84 1.02 28.547 28.547 0 015.46 1.38 2.916 2.916 0 011.86 1.68c.18.6.42.9 1.02.84a6.608 6.608 0 006.48-4.44q2.88-7.65 2.94-33.96l1.38-.78c.42-.24.66-.54.66-.84q0-.9-2.88-3.24a.849.849 0 00-1.38.18l-1.56 2.04h-19.62a65.695 65.695 0 002.88-8.94c1.5-.36 2.28-.78 2.28-1.26 0-.78-1.5-1.44-4.56-2.1a.9.9 0 00-1.14.78 60.575 60.575 0 01-8.64 24.12c-.3.54-.3.9.06 1.14a.843.843 0 001.26-.24 48.2 48.2 0 007.26-12h4.86q-3.42 15.21-14.04 24.84c-.48.48-.6.78-.3 1.08a.853.853 0 001.32.12q12.78-9.54 16.5-26.04h4.56q-3.42 23.94-20.1 36.48c-.54.42-.66.78-.36 1.14a.9.9 0 001.32.12 45.572 45.572 0 0017.52-19.32 66.58 66.58 0 005.04-18.42zm-8.46 81.28c-.48-.18-.84.18-.9.84-.54 4.32-1.38 6.72-2.34 7.14q-1.17.54-9 .54a32.247 32.247 0 01-6.48-.36 1.815 1.815 0 01-1.2-1.98v-10.56c1.68-.6 2.52-1.2 2.52-1.68 0-.78-1.62-1.26-4.86-1.5a.836.836 0 00-1.02.9v14.04c0 1.86.48 3.06 1.5 3.6.9.48 4.26.72 10.14.72 6.48 0 10.44-.12 11.88-.42a3.011 3.011 0 002.76-2.46c.12-.6-.24-.84-.78-1.08a1.446 1.446 0 01-.84-.84c-.36-.72-.54-2.64-.6-5.82a1.176 1.176 0 00-.78-1.08zm1.56-6.72a.88.88 0 00.24 1.2c4.02 3.6 6.66 7.26 7.86 11.1.48 1.44 1.08 2.16 2.04 2.16 1.44 0 2.16-.84 2.16-2.58a7.915 7.915 0 00-2.28-4.98 34.93 34.93 0 00-8.82-7.02.973.973 0 00-1.2.12zm-31.14 1.02c-.42-.12-.78.12-.9.72-1.14 5.16-3.36 8.64-6.66 10.56a2.36 2.36 0 00-1.38 1.86 1.886 1.886 0 002.16 2.16c1.26 0 2.64-.78 4.02-2.58 2.16-2.82 3.3-6.72 3.48-11.7a.9.9 0 00-.72-1.02zm13.62-5.28c-.24.36-.12.72.3 1.14a20.484 20.484 0 016.18 8.16c.42 1.14 1.02 1.74 1.92 1.74 1.38 0 2.04-.72 2.04-2.28 0-2.88-3.06-5.88-9.18-8.94a.972.972 0 00-1.26.18zm-20.46-19.68c-.78 0-1.08.36-.84.84a1.078 1.078 0 001.08.66h8.64v11.4c0 1.86.36 3 1.08 3.66.84.72 5.4 1.14 13.86 1.14 10.32 0 16.68-.18 19.14-.6.78-.12 1.2-.48 1.2-1.08 0-1.62-.78-2.46-2.34-2.46-.36 0-.72.06-.9.06a144.543 144.543 0 01-17.4.78 89.552 89.552 0 01-10.26-.3c-.6-.18-.96-.84-.96-1.98v-10.62h35.94a1.049 1.049 0 00.96-.42 1.066 1.066 0 00-.06-1.32 24.17 24.17 0 00-3-3.06.818.818 0 00-1.32.12l-2.52 3.18h-16.62v-5.94c1.74-.6 2.58-1.14 2.58-1.62 0-.84-1.74-1.26-5.16-1.38-.6-.06-.96.24-.96.9v8.04zm52.02 85.18a1.061 1.061 0 00-1.5-1.5c-1.26 1.62-4.02 3.12-7.08 3.84-2.82.72-4.98-.48-5.1-3.6a59.158 59.158 0 01.66-6.3c.48-4.32 1.44-9.06.06-13.38a5.856 5.856 0 00-6.12-4.02 10.872 10.872 0 00-5.76 1.98c-4.56 3.18-6.96 5.64-10.08 8.16a.18.18 0 01-.3-.12v-19.32a1.712 1.712 0 10-3.42 0v22.26a.505.505 0 01-.24.42c-2.94 2.64-5.16 4.68-7.56 7.14a.338.338 0 01-.54-.36c1.68-3.06 3.42-6.18 4.86-9.42a14.332 14.332 0 001.5-6.9 5.988 5.988 0 00-4.38-5.34 17.539 17.539 0 00-6.48-.36c-1.98.24-1.56 3.12.36 3.06 2.7-.06 7.68-.48 7.98 2.88a12.189 12.189 0 01-1.14 5.76 102.184 102.184 0 01-7.8 14.94c-.54.9-1.5 2.1-.54 3.12a1.457 1.457 0 002.1-.12c4.02-4.08 7.44-7.5 11.46-11.28.18-.12.42-.06.42.12v18.24a1.712 1.712 0 103.42 0v-21.18a.648.648 0 01.18-.42 75.979 75.979 0 0111.22-9.3c2.22-1.5 6.66-2.7 7.56 1.08.72 3.54-.24 7.38-.78 12.06a43.036 43.036 0 00-.54 6.78c.24 5.1 4.74 7.62 9.72 6.18a15.539 15.539 0 007.86-5.1z"/></g></svg>